<svg id="Layer_1" data-name="Layer 1" xmlns="http://www.w3.org/2000/svg" viewBox="0 0 106.58 96.93"><defs><style>.cls-1{fill:#fff;}.cls-2{fill:#c37256;}</style></defs><title>Artboard 7 copy 7</title><path class="cls-1" d="M11.79,50.84s-4.31-2.71-5.92-1.2c-.74.59.12,2.21,1.55,1.41A5.8,5.8,0,0,1,11.79,50.84Z"/><path class="cls-1" d="M17.88,53.92s-5.09.06-5.63,2.2c-.3.9,1.3,1.8,2.07.34A5.8,5.8,0,0,1,17.88,53.92Z"/><path class="cls-1" d="M94,50.49s4.87-3.07,6.69-1.36c.84.67-.13,2.5-1.75,1.59A6.55,6.55,0,0,0,94,50.49Z"/><path class="cls-1" d="M87.11,54s5.75.06,6.36,2.48c.34,1-1.47,2-2.33.38A6.55,6.55,0,0,0,87.11,54Z"/><path class="cls-2" d="M78.65,49a30.84,30.84,0,0,0-.76-5.81,17.69,17.69,0,0,0-2.41-6.94c-1.23-1.89-2.21-3.94-3.83-5.55a34.94,34.94,0,0,0-7.11-5.34,20.37,20.37,0,0,0-13.47-2.61c-1.71.24-3.44.42-5.15.65a12.21,12.21,0,0,0-4.14,1.07A47.38,47.38,0,0,0,37.28,27a33.62,33.62,0,0,0-4.36,3.51,24.26,24.26,0,0,0-2,2.82,21.91,21.91,0,0,0-4.56,12c-.08,1,.11,2.07.12,3.11,0,2-.15,4,0,6a16.48,16.48,0,0,0,2,6.82A55.35,55.35,0,0,0,32.33,67a20.61,20.61,0,0,0,9.46,7.16c1.59.57,3.19,1.13,4.78,1.72a14.48,14.48,0,0,0,7,1.07,71.68,71.68,0,0,0,7.22-1.31,20.12,20.12,0,0,0,9.62-5.07A24.39,24.39,0,0,0,75,63.83,32.42,32.42,0,0,0,78.65,49Z"/><path class="cls-2" d="M78.65,49A32.42,32.42,0,0,1,75,63.83a24.39,24.39,0,0,1-4.6,6.74,20.12,20.12,0,0,1-9.62,5.07,71.68,71.68,0,0,1-7.22,1.31,14.48,14.48,0,0,1-7-1.07c-1.59-.59-3.18-1.15-4.78-1.72A20.61,20.61,0,0,1,32.33,67a55.35,55.35,0,0,1-3.81-5.73,16.48,16.48,0,0,1-2-6.82c-.19-2,0-4,0-6,0-1-.2-2.08-.12-3.11a21.91,21.91,0,0,1,4.56-12,24.26,24.26,0,0,1,2-2.82A33.62,33.62,0,0,1,37.28,27a47.38,47.38,0,0,1,4.5-2.48,12.21,12.21,0,0,1,4.14-1.07c1.72-.23,3.44-.41,5.15-.65a20.37,20.37,0,0,1,13.47,2.61,34.94,34.94,0,0,1,7.11,5.34c1.62,1.61,2.6,3.67,3.83,5.55a17.69,17.69,0,0,1,2.41,6.94A30.84,30.84,0,0,1,78.65,49Z"/><circle class="cls-1" cx="41.14" cy="31.1" r="2.45"/><circle class="cls-1" cx="33.59" cy="42" r="2.45"/><circle class="cls-1" cx="50.05" cy="48.64" r="2.45"/><circle class="cls-1" cx="63.17" cy="34.65" r="2.45"/><circle class="cls-1" cx="50.05" cy="37.97" r="2.45"/><circle class="cls-1" cx="36.04" cy="59.64" r="2.45"/><circle class="cls-1" cx="54.03" cy="64.54" r="2.45"/><circle class="cls-1" cx="68.07" cy="62.09" r="2.45"/><circle class="cls-1" cx="72.97" cy="44.45" r="2.45"/><circle class="cls-1" cx="54.03" cy="26.7" r="2.45"/><circle class="cls-1" cx="43.59" cy="69.44" r="2.45"/><circle class="cls-1" cx="63.17" cy="54.68" r="2.45"/></svg>