<svg id="Layer_1" data-name="Layer 1" xmlns="http://www.w3.org/2000/svg" viewBox="0 0 106.58 96.93"><defs><style>.cls-1{fill:#fff;}.cls-2{fill:#c37256;}</style></defs><title>Artboard 7 copy 4</title><path class="cls-1" d="M11.79,50.84s-4.31-2.71-5.92-1.2c-.74.59.12,2.21,1.55,1.41A5.8,5.8,0,0,1,11.79,50.84Z"/><path class="cls-1" d="M17.88,53.92s-5.09.06-5.63,2.2c-.3.9,1.3,1.8,2.07.34A5.8,5.8,0,0,1,17.88,53.92Z"/><path class="cls-1" d="M94,50.49s4.87-3.07,6.69-1.36c.84.67-.13,2.5-1.75,1.59A6.55,6.55,0,0,0,94,50.49Z"/><path class="cls-1" d="M87.11,54s5.75.06,6.36,2.48c.34,1-1.47,2-2.33.38A6.55,6.55,0,0,0,87.11,54Z"/><circle class="cls-2" cx="54.46" cy="37.19" r="9.86"/><circle class="cls-2" cx="41.22" cy="43.18" r="9.86"/><circle class="cls-1" cx="34.22" cy="37.44" r="0.36"/><circle class="cls-1" cx="36.72" cy="38.16" r="0.36"/><circle class="cls-1" cx="39.82" cy="36.16" r="0.36"/><circle class="cls-1" cx="42.32" cy="36.89" r="0.36"/><circle class="cls-1" cx="39.25" cy="41.15" r="0.36"/><circle class="cls-1" cx="41.75" cy="41.87" r="0.36"/><circle class="cls-1" cx="44.84" cy="39.87" r="0.36"/><circle class="cls-1" cx="47.34" cy="40.6" r="0.36"/><circle class="cls-1" cx="38.27" cy="37.71" r="0.36"/><circle class="cls-1" cx="40.77" cy="38.44" r="0.36"/><circle class="cls-1" cx="43.87" cy="36.44" r="0.36"/><circle class="cls-1" cx="40.18" cy="35.16" r="0.36"/><circle class="cls-1" cx="36.14" cy="35.98" r="0.36"/><circle class="cls-1" cx="38.63" cy="36.71" r="0.36"/><circle class="cls-1" cx="41.73" cy="34.71" r="0.36"/><circle class="cls-1" cx="44.23" cy="35.44" r="0.36"/><circle class="cls-1" cx="38.7" cy="35.44" r="0.36"/><circle class="cls-1" cx="39.07" cy="34.44" r="0.36"/><circle class="cls-1" cx="37.29" cy="36.66" r="0.36"/><circle class="cls-1" cx="37.65" cy="34.8" r="0.36" transform="translate(-10.09 53.49) rotate(-64.12)"/><circle class="cls-1" cx="33.5" cy="40.23" r="0.36"/><circle class="cls-1" cx="36" cy="40.96" r="0.36"/><circle class="cls-1" cx="43.04" cy="38.53" r="0.36"/><circle class="cls-1" cx="40.55" cy="34.07" r="0.36"/><circle class="cls-1" cx="41.54" cy="35.75" r="0.36"/><circle class="cls-1" cx="43.09" cy="35.3" r="0.36"/><circle class="cls-1" cx="43.66" cy="34.14" r="0.36"/><circle class="cls-1" cx="42.52" cy="34" r="0.36"/><circle class="cls-2" cx="62.71" cy="43.18" r="9.86"/><circle class="cls-1" cx="55.71" cy="37.44" r="0.36"/><circle class="cls-1" cx="58.21" cy="38.16" r="0.36"/><circle class="cls-1" cx="63.81" cy="36.89" r="0.36"/><circle class="cls-1" cx="60.74" cy="41.15" r="0.36"/><circle class="cls-1" cx="66.33" cy="39.87" r="0.36"/><circle class="cls-1" cx="68.83" cy="40.6" r="0.36"/><circle class="cls-1" cx="59.76" cy="37.71" r="0.36"/><circle class="cls-1" cx="62.26" cy="38.44" r="0.36"/><circle class="cls-1" cx="65.36" cy="36.44" r="0.36"/><circle class="cls-1" cx="67.86" cy="37.16" r="0.36"/><circle class="cls-1" cx="61.67" cy="35.16" r="0.36"/><circle class="cls-1" cx="57.63" cy="35.98" r="0.36"/><circle class="cls-1" cx="60.12" cy="36.71" r="0.36"/><circle class="cls-1" cx="63.22" cy="34.71" r="0.36"/><circle class="cls-1" cx="65.72" cy="35.44" r="0.36"/><circle class="cls-1" cx="60.19" cy="35.44" r="0.36"/><circle class="cls-1" cx="60.56" cy="34.44" r="0.36"/><circle class="cls-1" cx="58.78" cy="36.66" r="0.36"/><circle class="cls-1" cx="59.14" cy="34.8" r="0.36" transform="translate(2.02 72.82) rotate(-64.12)"/><circle class="cls-1" cx="54.99" cy="40.23" r="0.36"/><circle class="cls-1" cx="57.49" cy="40.96" r="0.36"/><circle class="cls-1" cx="64.53" cy="38.53" r="0.36"/><circle class="cls-1" cx="62.04" cy="34.07" r="0.36"/><circle class="cls-1" cx="64.58" cy="35.3" r="0.36"/><circle class="cls-1" cx="65.15" cy="34.14" r="0.36"/><circle class="cls-1" cx="64.01" cy="34" r="0.36"/><circle class="cls-1" cx="70.09" cy="38.44" r="0.36"/><circle class="cls-1" cx="67.86" cy="35.8" r="0.36"/><circle class="cls-1" cx="69.2" cy="37.16" r="0.36"/><path class="cls-1" d="M29.61,44l5.84,20.29s.17,3.19,16.29,3.19C68.32,67.5,68,64.31,68,64.31L73.86,44Z"/><polyline class="cls-1" points="47.98 66.49 39.15 74.36 64.32 74.36 56.09 66.13"/><circle class="cls-1" cx="47.46" cy="31.45" r="0.36"/><circle class="cls-1" cx="49.96" cy="32.17" r="0.36"/><circle class="cls-1" cx="53.06" cy="30.17" r="0.36"/><circle class="cls-1" cx="55.55" cy="30.9" r="0.36"/><circle class="cls-1" cx="52.49" cy="35.16" r="0.36"/><circle class="cls-1" cx="54.98" cy="35.88" r="0.36"/><circle class="cls-1" cx="58.08" cy="33.88" r="0.36"/><circle class="cls-1" cx="60.58" cy="34.61" r="0.36"/><circle class="cls-1" cx="51.51" cy="31.72" r="0.36"/><circle class="cls-1" cx="54.01" cy="32.45" r="0.36"/><circle class="cls-1" cx="57.1" cy="30.45" r="0.36"/><circle class="cls-1" cx="59.6" cy="31.17" r="0.36"/><circle class="cls-1" cx="53.42" cy="29.17" r="0.36"/><circle class="cls-1" cx="49.37" cy="30" r="0.36"/><circle class="cls-1" cx="51.87" cy="30.72" r="0.36"/><circle class="cls-1" cx="54.97" cy="28.72" r="0.36"/><circle class="cls-1" cx="57.47" cy="29.45" r="0.36"/><circle class="cls-1" cx="51.94" cy="29.45" r="0.36"/><circle class="cls-1" cx="52.3" cy="28.45" r="0.36"/><circle class="cls-1" cx="50.53" cy="30.67" r="0.36"/><circle class="cls-1" cx="50.89" cy="28.81" r="0.36" transform="translate(2.75 62.02) rotate(-64.12)"/><circle class="cls-1" cx="46.73" cy="34.25" r="0.36"/><circle class="cls-1" cx="49.23" cy="34.97" r="0.36"/><circle class="cls-1" cx="56.28" cy="32.54" r="0.36"/><circle class="cls-1" cx="53.78" cy="28.09" r="0.36"/><circle class="cls-1" cx="54.78" cy="29.76" r="0.36"/><circle class="cls-1" cx="56.33" cy="29.31" r="0.36"/><circle class="cls-1" cx="56.9" cy="28.15" r="0.36"/><circle class="cls-1" cx="55.76" cy="28.02" r="0.36"/><circle class="cls-1" cx="61.84" cy="32.45" r="0.36"/><circle class="cls-1" cx="59.6" cy="29.81" r="0.36"/><circle class="cls-1" cx="60.94" cy="31.17" r="0.36"/><circle class="cls-1" cx="66.7" cy="35.07" r="0.36"/><circle class="cls-1" cx="68.47" cy="38.88" r="0.36"/></svg>