<svg id="Layer_1" data-name="Layer 1" xmlns="http://www.w3.org/2000/svg" viewBox="0 0 106.58 96.93"><defs><style>.cls-1{fill:#fff;}.cls-2{fill:#c37256;}</style></defs><title>Artboard 7 copy 3</title><path class="cls-1" d="M23.6,48.6s-4.31-2.71-5.92-1.2c-.74.59.12,2.21,1.55,1.41A5.8,5.8,0,0,1,23.6,48.6Z"/><path class="cls-1" d="M29.68,51.68s-5.09.06-5.63,2.2c-.3.9,1.3,1.8,2.07.34A5.8,5.8,0,0,1,29.68,51.68Z"/><path class="cls-1" d="M84.21,48.3s4.87-3.07,6.69-1.36c.84.67-.13,2.5-1.75,1.59A6.55,6.55,0,0,0,84.21,48.3Z"/><path class="cls-1" d="M77.35,51.78s5.75.06,6.36,2.48c.34,1-1.47,2-2.33.38A6.55,6.55,0,0,0,77.35,51.78Z"/><path class="cls-1" d="M36.39,29l4.46,42.86s.13,6.73,12.44,6.73c12.67,0,12.44-6.73,12.44-6.73L70.19,29Z"/><polyline class="cls-1" points="49.53 77.59 40.7 85.45 65.88 85.45 57.65 77.22"/><path class="cls-2" d="M40.21,34.93l3.45,35.4s.1,5.56,9.63,5.56c9.81,0,9.63-5.56,9.63-5.56l3.45-35.4Z"/></svg>