<svg id="Layer_1" data-name="Layer 1" xmlns="http://www.w3.org/2000/svg" viewBox="0 0 106.58 96.93"><defs><style>.cls-1{fill:#fff;}.cls-2{fill:#c37256;}</style></defs><title>Artboard 7</title><polygon class="cls-1" points="27.7 38.58 32.86 92.72 61.65 92.72 66.8 38.58 27.7 38.58"/><polygon class="cls-1" points="51.2 4.21 47.25 24.27 50.57 24.27 54.44 4.83 51.2 4.21"/><path class="cls-2" d="M69.45,44.27a22.19,22.19,0,1,0-44.39,0Z"/><path class="cls-2" d="M36.81,89H59l3.7-36.46s-4.94,3.56-15.47-.56-14.56,3.29-14.56,3.29L35.76,89Z"/><path class="cls-1" d="M89.07,60.17s7.32-4.61,10.06-2c1.26,1-.2,3.76-2.64,2.39C94.36,59.46,92.11,59.34,89.07,60.17Z"/><path class="cls-1" d="M78.74,65.4s8.65.09,9.56,3.73c.52,1.52-2.21,3-3.51.58C83.57,67.67,81.75,66.35,78.74,65.4Z"/><path class="cls-1" d="M13.73,60.33s-6.48-4.08-8.9-1.81c-1.11.89.18,3.33,2.33,2.11C9,59.7,11,59.59,13.73,60.33Z"/><path class="cls-1" d="M22.87,65s-7.66.08-8.46,3.31c-.46,1.35,2,2.7,3.11.51C18.59,67,20.21,65.8,22.87,65Z"/></svg>