<svg id="Layer_1" data-name="Layer 1" xmlns="http://www.w3.org/2000/svg" viewBox="0 0 106.58 96.93"><defs><style>.cls-1,.cls-3{fill:#fff;}.cls-2{fill:#c37256;}.cls-3{stroke:#fff;stroke-miterlimit:10;stroke-width:0.25px;}</style></defs><title>Artboard 7 copy</title><polygon class="cls-1" points="33.74 26.98 38.89 81.12 67.68 81.12 72.84 26.98 33.74 26.98"/><polygon class="cls-2" points="34.17 33.93 72.41 33.93 69.83 61.86 37.17 61.86 34.17 33.93"/><polygon class="cls-2" points="31.09 26.98 75.49 26.98 75.49 22.75 73.59 22.75 69.45 15.81 36.52 15.81 33.81 22.75 31.09 22.75 31.09 26.98"/><line class="cls-3" x1="32.38" y1="22.47" x2="74.62" y2="22.47"/><path class="cls-1" d="M80.55,50.29s5.33-3.35,7.32-1.49c.92.73-.15,2.74-1.92,1.74A7.16,7.16,0,0,0,80.55,50.29Z"/><path class="cls-1" d="M73,54.1s6.29.07,7,2.72c.38,1.11-1.61,2.22-2.55.42A7.16,7.16,0,0,0,73,54.1Z"/><path class="cls-1" d="M25.72,50.41s-4.72-3-6.48-1.32c-.81.64.13,2.42,1.7,1.54A6.34,6.34,0,0,1,25.72,50.41Z"/><path class="cls-1" d="M32.37,53.78s-5.57.06-6.16,2.41c-.33,1,1.42,2,2.26.37A6.34,6.34,0,0,1,32.37,53.78Z"/></svg>