<svg id="Layer_1" data-name="Layer 1" xmlns="http://www.w3.org/2000/svg" viewBox="0 0 106.58 96.93"><defs><style>.cls-1{fill:#fff;}.cls-2{fill:#c37256;}</style></defs><title>Artboard 7</title><polygon class="cls-1" points="33.14 40.69 36.9 80.09 57.85 80.09 61.6 40.69 33.14 40.69"/><polygon class="cls-1" points="50.25 15.68 47.37 30.28 49.79 30.28 52.61 16.13 50.25 15.68"/><path class="cls-2" d="M63.52,44.84a16.15,16.15,0,1,0-32.3,0Z"/><path class="cls-2" d="M39.77,77.36H55.94l2.69-26.53S55,53.41,47.37,50.42s-10.6,2.39-10.6,2.39L39,77.36Z"/><path class="cls-1" d="M77.81,56.41s5.33-3.35,7.32-1.49c.92.73-.15,2.74-1.92,1.74A7.16,7.16,0,0,0,77.81,56.41Z"/><path class="cls-1" d="M70.29,60.21s6.29.07,7,2.72c.38,1.11-1.61,2.22-2.55.42A7.16,7.16,0,0,0,70.29,60.21Z"/><path class="cls-1" d="M23,56.52s-4.72-3-6.48-1.32c-.81.64.13,2.42,1.7,1.54A6.34,6.34,0,0,1,23,56.52Z"/><path class="cls-1" d="M29.63,59.89s-5.57.06-6.16,2.41c-.33,1,1.42,2,2.26.37A6.34,6.34,0,0,1,29.63,59.89Z"/></svg>