<svg id="Layer_1" data-name="Layer 1" xmlns="http://www.w3.org/2000/svg" viewBox="0 0 106.58 96.93"><defs><style>.cls-1{fill:none;stroke:#fff;stroke-miterlimit:10;stroke-width:4px;}.cls-2{fill:#c37256;}.cls-3{fill:#fff;}</style></defs><title>Artboard 7 copy 2</title><path class="cls-1" d="M44.76,48.62c0,3.78,0,6.85-11.61,6.85-6.41,0-9.4-3.07-9.4-6.85s3-6.85,9.4-6.85C43.88,41.77,44.76,44.83,44.76,48.62Z"/><path class="cls-2" d="M84.62,43.36c0,14.49-10.84,26.24-24.22,26.24S36.18,57.86,36.18,43.36v-5.3H84.62Z"/><path class="cls-3" d="M11.79,50.84s-4.31-2.71-5.92-1.2c-.74.59.12,2.21,1.55,1.41A5.8,5.8,0,0,1,11.79,50.84Z"/><path class="cls-3" d="M17.88,53.92s-5.09.06-5.63,2.2c-.3.9,1.3,1.8,2.07.34A5.8,5.8,0,0,1,17.88,53.92Z"/><path class="cls-3" d="M94,50.49s4.87-3.07,6.69-1.36c.84.67-.13,2.5-1.75,1.59A6.55,6.55,0,0,0,94,50.49Z"/><path class="cls-3" d="M87.11,54s5.75.06,6.36,2.48c.34,1-1.47,2-2.33.38A6.55,6.55,0,0,0,87.11,54Z"/></svg>