<svg id="Layer_1" data-name="Layer 1" xmlns="http://www.w3.org/2000/svg" viewBox="0 0 118.28 106.67"><defs><style>.cls-1{fill:#222221;}.cls-2{fill:#42a398;}</style></defs><title>Artboard 2</title><path class="cls-1" d="M11.88,73.92l2.07,4.56,2.48-6.62,1.25-.57-1.94,5.1,6.19,3.71-1.2.54-5.34-3.28-.89,2.31,1.43,3.14-1,.43-4-8.91Z"/><path class="cls-1" d="M28.45,72.7a7,7,0,0,1,.4,2.05,4.63,4.63,0,0,1-.28,1.81,4,4,0,0,1-1,1.45,4.77,4.77,0,0,1-3.54,1.22,3.9,3.9,0,0,1-1.65-.55,4.7,4.7,0,0,1-1.33-1.25,7.55,7.55,0,0,1-1.35-3.92A4.7,4.7,0,0,1,20,71.71a3.87,3.87,0,0,1,1-1.45A4.77,4.77,0,0,1,24.51,69a4,4,0,0,1,1.65.55,4.63,4.63,0,0,1,1.34,1.25A7,7,0,0,1,28.45,72.7Zm-1,.34a5.59,5.59,0,0,0-.83-1.59,4,4,0,0,0-1.11-1A3.15,3.15,0,0,0,24.25,70a3.13,3.13,0,0,0-2.49.86A3.16,3.16,0,0,0,21,72a3.89,3.89,0,0,0-.24,1.48A6.31,6.31,0,0,0,22,76.82a3.89,3.89,0,0,0,1.1,1,3.14,3.14,0,0,0,1.27.44,3.12,3.12,0,0,0,2.49-.86,3.14,3.14,0,0,0,.73-1.13,4,4,0,0,0,.24-1.48A5.6,5.6,0,0,0,27.46,73Z"/><path class="cls-1" d="M29,67.51l3.6-.86a3.09,3.09,0,0,1,1.3-.06,2.88,2.88,0,0,1,1.05.41,2.71,2.71,0,0,1,.76.74,2.8,2.8,0,0,1,.12,3,2.72,2.72,0,0,1-.75.83,3.21,3.21,0,0,1-1.17.52l-2.59.62,1,4.08-1,.24Zm2.11,4.29,2.59-.62a1.83,1.83,0,0,0,.67-.31,2,2,0,0,0,.5-.53,2,2,0,0,0,.27-.68,1.8,1.8,0,0,0,0-.76,1.76,1.76,0,0,0-.84-1.14,1.93,1.93,0,0,0-.67-.23,2,2,0,0,0-.77,0l-2.58.62Z"/><path class="cls-1" d="M42.72,64.75l1.15,7.13a3.45,3.45,0,0,1,0,1.32,2.42,2.42,0,0,1-.44,1,2.35,2.35,0,0,1-.76.63,3.23,3.23,0,0,1-1,.32,3.09,3.09,0,0,1-1,0,2.54,2.54,0,0,1-.92-.35,2.35,2.35,0,0,1-.71-.7A2.61,2.61,0,0,1,38.63,73l-.12-.75,1-.17.1.63a1.9,1.9,0,0,0,.27.75,1.7,1.7,0,0,0,.46.48,1.53,1.53,0,0,0,.57.24,1.7,1.7,0,0,0,.6,0A1.81,1.81,0,0,0,42,74a1.45,1.45,0,0,0,.48-.38,1.64,1.64,0,0,0,.32-.62,2,2,0,0,0,0-.87l-1.17-7.26Z"/><path class="cls-1" d="M51.23,63.94l.08.94-5.47.46.28,3.3,5.14-.43.08.94-5.14.43.31,3.62,5.71-.48.08.94-6.75.57-.82-9.75Z"/><path class="cls-1" d="M64.47,64l0,.95-5.33-.2L59,68.09l4.64.17,0,.95L58.95,69l-.17,4.58-1,0,.36-9.78Z"/><path class="cls-1" d="M74.67,70.13a7,7,0,0,1-.55,2,4.63,4.63,0,0,1-1.05,1.5,4,4,0,0,1-1.5.88,4.78,4.78,0,0,1-3.71-.47,3.87,3.87,0,0,1-1.23-1.23A4.68,4.68,0,0,1,66,71.12,7.55,7.55,0,0,1,66.5,67a4.69,4.69,0,0,1,1-1.5,3.9,3.9,0,0,1,1.5-.88,4.78,4.78,0,0,1,3.71.47A4,4,0,0,1,74,66.32,4.63,4.63,0,0,1,74.64,68,7,7,0,0,1,74.67,70.13Zm-1-.13a5.61,5.61,0,0,0,0-1.79,4,4,0,0,0-.54-1.4,3.14,3.14,0,0,0-.95-1,3.13,3.13,0,0,0-2.61-.33,3.14,3.14,0,0,0-1.16.69,3.88,3.88,0,0,0-.87,1.22A6.32,6.32,0,0,0,67,70.95a3.88,3.88,0,0,0,.54,1.4,3.15,3.15,0,0,0,.95,1,3.13,3.13,0,0,0,2.61.33,3.15,3.15,0,0,0,1.16-.69,4,4,0,0,0,.88-1.22A5.6,5.6,0,0,0,73.63,70Z"/><path class="cls-1" d="M78.47,65.92,77.37,70.8l6-3.78,1.34.3L80,70.22l2.69,6.7-1.28-.29-2.27-5.84-2.11,1.31-.76,3.37-1-.23,2.16-9.54Z"/><path class="cls-1" d="M87.92,68.27,86.37,73l6.3-3.21,1.3.42L89.1,72.7l2.06,6.92-1.25-.41-1.73-6L86,74.29l-1.07,3.28-1-.32,3-9.3Z"/><path class="cls-1" d="M97.38,71.64l-3.65,9.08-1-.39,3.65-9.08Z"/><path class="cls-1" d="M105.59,75.42l-.41.85-4.94-2.39-1.44,3,4.65,2.25L103,80l-4.65-2.25L96.8,81l5.15,2.5-.41.85-6.1-3,4.27-8.81Z"/><path class="cls-1" d="M28.66,93.23a1.58,1.58,0,0,1-1.34.84c-1.34,0-1.54-1.62-1.54-2.64s.2-2.65,1.54-2.65a1.41,1.41,0,0,1,1.26.83l-.44.26a1,1,0,0,0-.82-.61c-.94,0-1,1.48-1,2.16s.06,2.15,1,2.15a1.17,1.17,0,0,0,.91-.65Z"/><path class="cls-1" d="M33.27,91.43c0,.65,0,2.65-1.43,2.65s-1.43-2-1.43-2.65c0-.85.05-2.64,1.43-2.64S33.27,90.75,33.27,91.43Zm-2.32,0c0,1.39.16,2.16.89,2.16.9,0,.89-1.27.89-2.16s0-2.15-.89-2.15S31,90.67,31,91.43Z"/><path class="cls-1" d="M35.51,88.86H38v.46H36V91h1.69v.46H36V94h-.52Z"/><path class="cls-1" d="M40.14,88.86h2.53v.46h-2V91h1.69v.46H40.66V94h-.52Z"/><path class="cls-1" d="M44.62,88.86h2.51v.46h-2V91h1.64v.46H45.14v2.06h2V94H44.62Z"/><path class="cls-1" d="M49.25,88.86h2.51v.46h-2V91h1.64v.46H49.77v2.06h2V94H49.25Z"/><path class="cls-1" d="M61,91.43c0,.65,0,2.65-1.43,2.65s-1.43-2-1.43-2.65c0-.85.05-2.64,1.43-2.64S61,90.75,61,91.43Zm-2.32,0c0,1.39.16,2.16.89,2.16.9,0,.89-1.27.89-2.16s0-2.15-.89-2.15S58.73,90.67,58.73,91.43Z"/><path class="cls-1" d="M62.9,88.86h.65l1.53,4.33,0,0,0-1.15V88.86h.52V94h-.65l-1.53-4.34,0,0,0,1.17V94H62.9Z"/><path class="cls-1" d="M73.25,89.32H72.14v-.46h2.72v.46H73.77V94h-.52Z"/><path class="cls-1" d="M79.56,91.43c0,.65,0,2.65-1.43,2.65s-1.43-2-1.43-2.65c0-.85.05-2.64,1.43-2.64S79.56,90.75,79.56,91.43Zm-2.32,0c0,1.39.16,2.16.89,2.16.9,0,.89-1.27.89-2.16s0-2.15-.89-2.15S77.24,90.67,77.24,91.43Z"/><path class="cls-1" d="M82,88.86V92.6c0,.51.1,1,.74,1s.75-.49.75-1V88.86H84v3.9a1.21,1.21,0,0,1-1.27,1.32,1.2,1.2,0,0,1-1.26-1.3V88.86Z"/><path class="cls-1" d="M86.32,88.86h1.39a1.24,1.24,0,0,1,1.15,1.37A1.42,1.42,0,0,1,88,91.67L89,93.88l-.46.22-1.16-2.39h-.58V94h-.52Zm.52,2.39h.76c.45,0,.73-.33.73-1s-.32-.9-.85-.9h-.63Z"/><circle class="cls-1" cx="18.35" cy="91.71" r="0.48"/><circle class="cls-1" cx="94.93" cy="91.71" r="0.48"/><path class="cls-2" d="M55.56,57.45c-10.74,0-19.47-9.55-19.47-21.28h1c0,11.18,8.29,20.28,18.47,20.28C65.92,56.45,74,47.69,74,36.52h1C75,48.26,66.48,57.45,55.56,57.45Z"/><path class="cls-2" d="M72.24,46.5v-1c4.62,0,10.36,0,10.36-3.52,0-3.35-3.21-3.52-8.46-3.52v-1c4.65,0,9.46,0,9.46,4.52S77,46.5,72.24,46.5Z"/><rect class="cls-2" x="54.68" y="27.42" width="1" height="16.99"/><path class="cls-2" d="M55.54,44.76l-.71-.7,3.55-3.62C58.8,31.93,61,26.6,66.76,20.17c5.39-6,17.83-6.75,18.35-6.77l1.28-.07-.12.13.09,0c0,.19.8,4.85-5.26,16.71-2.54,5-7.21,8.46-13.49,10.09a30.86,30.86,0,0,1-8.59,1ZM85.4,14.34,60,40.22c3.63,0,15.3-.91,20.21-10.53C84.77,20.77,85.36,16,85.4,14.34Zm-1.57.17c-3.36.36-12.21,1.72-16.33,6.32C62.19,26.78,60,31.75,59.44,39.35Z"/><polygon class="cls-2" points="61.31 38.24 61.31 28.01 62.31 28.01 62.31 37.22 73.33 36.94 73.35 37.94 61.31 38.24"/><polygon class="cls-2" points="65.36 34.18 65.12 22.28 66.12 22.26 66.34 33.15 78.39 32.79 78.42 33.79 65.36 34.18"/><polygon class="cls-2" points="69.43 30.1 69.43 18.18 70.43 18.18 70.43 29.03 81.19 28.29 81.26 29.28 69.43 30.1"/><polygon class="cls-2" points="83.11 25.2 74.28 25.2 73.99 15.95 74.99 15.92 75.25 24.2 83.11 24.2 83.11 25.2"/><polygon class="cls-2" points="84.8 20.79 78.65 20.79 78.65 14.48 79.65 14.48 79.65 19.79 84.8 19.79 84.8 20.79"/><path class="cls-2" d="M54.88,44.85,51.27,41.3c-8.51-.42-13.84-2.63-20.27-8.38-6-5.39-6.82-17.9-6.85-18.43l0-.55H24l-.1-1c.21,0,5.2-.42,17,5.63,5,2.54,8.46,7.21,10.09,13.49a30.84,30.84,0,0,1,1,8.59l3.55,3.48ZM25.27,15.77c.38,3.38,1.79,12.29,6.39,16.4,5.95,5.32,10.92,7.51,18.52,8.06ZM24.85,14l.15.14L51,39.69c0-3.63-.91-15.3-10.53-20.21C31.59,14.9,26.66,14.09,24.85,14Z"/><polygon class="cls-2" points="49.07 38.36 38.84 38.36 38.84 37.36 48.05 37.36 47.76 26.35 48.76 26.32 49.07 38.36"/><polygon class="cls-2" points="33.1 34.56 33.08 33.56 43.98 33.34 43.62 21.28 44.62 21.25 45.01 34.31 33.1 34.56"/><polygon class="cls-2" points="40.92 30.24 29 30.24 29 29.24 39.85 29.24 39.11 18.49 40.11 18.42 40.92 30.24"/><polygon class="cls-2" points="26.78 25.69 26.75 24.69 35.03 24.43 35.03 16.57 36.03 16.57 36.03 25.4 26.78 25.69"/><polygon class="cls-2" points="31.62 21.03 25.3 21.03 25.3 20.03 30.62 20.03 30.62 14.88 31.62 14.88 31.62 21.03"/><path class="cls-2" d="M51.74,24.76a2.3,2.3,0,0,1-1.89-.83c-.87-1.16-.28-3.08,1.33-4.3s3.62-1.26,4.5-.11a2.33,2.33,0,0,1,.25,2.19,4.49,4.49,0,0,1-1.58,2.1A4.42,4.42,0,0,1,51.74,24.76Zm2-5.33a3.71,3.71,0,0,0-2.16.79c-1.25.95-1.8,2.44-1.18,3.25s2.19.7,3.45-.25a3.75,3.75,0,0,0,1.32-1.74,1.6,1.6,0,0,0-.14-1.5A1.56,1.56,0,0,0,53.78,19.43Z"/><path class="cls-2" d="M52.39,24.49l-.71-.25A1.14,1.14,0,0,0,51.53,23a1.07,1.07,0,0,0-1.47,0l-.49-.57a1.8,1.8,0,0,1,2.46,0A1.85,1.85,0,0,1,52.39,24.49Z"/><path class="cls-2" d="M52,19.8a4.6,4.6,0,0,1-2-1.53,4.5,4.5,0,0,1-.95-2.46,2.17,2.17,0,0,1,3-2.29,4.49,4.49,0,0,1,2.1,1.58c1.12,1.48,1.27,3.27.37,4.26l-.55-.51c.64-.7.46-2.15-.41-3.3a3.75,3.75,0,0,0-1.74-1.32,1.43,1.43,0,0,0-2,1.55,3.75,3.75,0,0,0,.8,2A3.84,3.84,0,0,0,52.3,19.1Z"/><path class="cls-2" d="M50.21,16.48a2.46,2.46,0,0,1-.82-.15l.25-.71a1.15,1.15,0,0,0,1.27-.16,1.07,1.07,0,0,0,0-1.47l.57-.49a1.8,1.8,0,0,1,0,2.46A1.68,1.68,0,0,1,50.21,16.48Z"/><path class="cls-2" d="M49.86,22.26c-1.86-.38-3.12-1.69-2.93-3,.16-1.18,1.41-2.06,3-2.14l0,.75c-1.25.06-2.21.68-2.32,1.5s.89,1.91,2.33,2.21Z"/><path class="cls-2" d="M48.33,21.42,48,20.74c.83-.4.79-1,.79-1a1.07,1.07,0,0,0-1-1l.06-.75a1.8,1.8,0,0,1,1.73,1.75A1.85,1.85,0,0,1,48.33,21.42Z"/><path class="cls-2" d="M56.57,20.34l-.34,0a2,2,0,0,1-1.42-.89c-.78-1.22-.26-3.2,1.2-4.5h0a3.48,3.48,0,0,1,2.72-1,2,2,0,0,1,1.42.89c.78,1.22.26,3.2-1.2,4.5A3.68,3.68,0,0,1,56.57,20.34Zm1.83-5.69a3,3,0,0,0-1.89.84h0c-1.15,1-1.63,2.65-1.07,3.54a1.21,1.21,0,0,0,.89.55,2.77,2.77,0,0,0,2.12-.82c1.15-1,1.63-2.65,1.06-3.54a1.21,1.21,0,0,0-.89-.55Z"/><path class="cls-2" d="M59.27,16.88h0a1.7,1.7,0,0,1-1.14-.54,2.15,2.15,0,0,1-.32-2.15l.72.21a1.45,1.45,0,0,0,.15,1.42,1,1,0,0,0,.62.31.9.9,0,0,0,.61-.3l.53.53A1.58,1.58,0,0,1,59.27,16.88Z"/><path class="cls-2" d="M56.51,14.87a2.73,2.73,0,0,0-2.06-2.07c-.71,0-1.3.55-1.5,1.5l-.74-.15c.27-1.34,1.17-2.19,2.27-2.1a3.43,3.43,0,0,1,2.74,2.58Z"/><path class="cls-2" d="M54.36,14.63a2.27,2.27,0,0,1-1.78-1l.59-.46a1.46,1.46,0,0,0,1.24.71,1,1,0,0,0,.61-.32.86.86,0,0,0,.11-.67l.74-.12A1.57,1.57,0,0,1,55.62,14a1.7,1.7,0,0,1-1.1.61Z"/><path class="cls-2" d="M59.36,25.52A4.45,4.45,0,0,1,56.19,24a3.49,3.49,0,0,1-1-2.72,2,2,0,0,1,.89-1.42c1.22-.78,3.2-.26,4.5,1.2h0a3.49,3.49,0,0,1,1,2.72,2,2,0,0,1-.89,1.42A2.45,2.45,0,0,1,59.36,25.52Zm-2-5.31a1.67,1.67,0,0,0-.91.24,1.21,1.21,0,0,0-.55.89,2.8,2.8,0,0,0,.82,2.12c1,1.15,2.65,1.63,3.54,1.06a1.21,1.21,0,0,0,.55-.89A2.8,2.8,0,0,0,60,21.51h0A3.77,3.77,0,0,0,57.38,20.21Z"/><path class="cls-2" d="M59.15,25.4a1.57,1.57,0,0,1-.53-1.17,1.7,1.7,0,0,1,.54-1.14,2.14,2.14,0,0,1,2.15-.32l-.21.72a1.46,1.46,0,0,0-1.42.15,1,1,0,0,0-.31.62.86.86,0,0,0,.3.61Z"/><path class="cls-2" d="M55.31,27.64a1.55,1.55,0,0,1-.34,0,2.93,2.93,0,0,1-1.84-3.14,3.51,3.51,0,0,1,.11-.71l.72.19a2.73,2.73,0,0,0-.09.56c-.06,1.12.51,2.21,1.25,2.37a.81.81,0,0,0,.7-.16,2,2,0,0,0,.66-1.5,3.07,3.07,0,0,0-.15-1.15l.71-.24a3.83,3.83,0,0,1,.19,1.43,2.73,2.73,0,0,1-1,2.06A1.6,1.6,0,0,1,55.31,27.64Z"/><path class="cls-2" d="M56,26.89c-.33-.61-.75-.63-.76-.63a.67.67,0,0,0-.43.14.57.57,0,0,0-.14.42h-.75a1.28,1.28,0,0,1,.37-1,1.37,1.37,0,0,1,1-.34,1.68,1.68,0,0,1,1.4,1Z"/><path class="cls-2" d="M61.84,46.08a25.77,25.77,0,0,1-6.07-.71,36.28,36.28,0,0,0-17.43,0l-.27-1a36.64,36.64,0,0,1,18,0,28.79,28.79,0,0,0,16.84-1.52l.42.91A30,30,0,0,1,61.84,46.08Z"/></svg>