<svg id="Layer_1" data-name="Layer 1" xmlns="http://www.w3.org/2000/svg" viewBox="0 0 162.26 167.13"><defs><style>.cls-1{fill:#fff;}.cls-2,.cls-4{fill:none;stroke-width:2px;}.cls-2{stroke:#c37256;}.cls-2,.cls-4,.cls-5,.cls-6{stroke-miterlimit:10;}.cls-3,.cls-5,.cls-6{fill:#42a398;}.cls-4{stroke:#fff;}.cls-5,.cls-6{stroke:#464445;}.cls-6{stroke-width:3px;}.cls-7{fill:#c37256;}</style></defs><title>logo_nmd</title><path class="cls-1" d="M40.83,151.35a2.61,2.61,0,0,1-2.21,1.39c-2.22,0-2.55-2.68-2.55-4.37S36.4,144,38.62,144a2.32,2.32,0,0,1,2.08,1.38l-.73.43a1.56,1.56,0,0,0-1.35-1c-1.56,0-1.66,2.45-1.66,3.57s.1,3.56,1.66,3.56a1.94,1.94,0,0,0,1.51-1.07Z"/><path class="cls-1" d="M48.46,148.36c0,1.07,0,4.38-2.36,4.38s-2.36-3.28-2.36-4.38c0-1.4.09-4.37,2.36-4.37S48.46,147.24,48.46,148.36Zm-3.83,0c0,2.3.27,3.57,1.47,3.57,1.48,0,1.47-2.09,1.47-3.57s0-3.56-1.47-3.56S44.63,147.11,44.63,148.36Z"/><path class="cls-1" d="M52.17,144.11h4.19v.77H53v2.81h2.8v.77H53v4.17h-.85Z"/><path class="cls-1" d="M59.82,144.11H64v.77H60.68v2.81h2.8v.77h-2.8v4.17h-.85Z"/><path class="cls-1" d="M67.23,144.11h4.15v.77H68.09v2.81H70.8v.77H68.09v3.41h3.29v.77H67.23Z"/><path class="cls-1" d="M74.88,144.11H79v.77H75.74v2.81h2.72v.77H75.74v3.41H79v.77H74.88Z"/><path class="cls-1" d="M94.38,148.36c0,1.07,0,4.38-2.36,4.38s-2.36-3.28-2.36-4.38c0-1.4.09-4.37,2.36-4.37S94.38,147.24,94.38,148.36Zm-3.83,0c0,2.3.27,3.57,1.47,3.57,1.48,0,1.47-2.09,1.47-3.57s0-3.56-1.47-3.56S90.55,147.11,90.55,148.36Z"/><path class="cls-1" d="M97.45,144.11h1.07l2.53,7.16,0,0,0-1.9v-5.23h.85v8.51h-1.07l-2.53-7.17,0,0,0,1.93v5.22h-.86Z"/><path class="cls-1" d="M114.56,144.88h-1.84v-.77h4.49v.77h-1.8v7.75h-.85Z"/><path class="cls-1" d="M125,148.36c0,1.07,0,4.38-2.36,4.38s-2.36-3.28-2.36-4.38c0-1.4.09-4.37,2.36-4.37S125,147.24,125,148.36Zm-3.83,0c0,2.3.27,3.57,1.47,3.57,1.48,0,1.47-2.09,1.47-3.57s0-3.56-1.47-3.56S121.16,147.11,121.16,148.36Z"/><path class="cls-1" d="M129.05,144.11v6.19c0,.84.17,1.63,1.23,1.63s1.24-.8,1.24-1.63v-6.19h.85v6.45a2,2,0,0,1-2.09,2.18,2,2,0,0,1-2.08-2.14v-6.48Z"/><path class="cls-1" d="M136.17,144.11h2.3a2.06,2.06,0,0,1,1.9,2.26,2.34,2.34,0,0,1-1.47,2.4l1.76,3.65-.77.37-1.92-4h-1v3.79h-.85Zm.85,4h1.25c.74,0,1.2-.55,1.2-1.7s-.54-1.49-1.4-1.49h-1Z"/><path class="cls-2" d="M21.76,86.79a59.52,59.52,0,1,1,33.33,40"/><path class="cls-2" d="M40.8,117.72A59.7,59.7,0,0,1,24.41,95"/><path class="cls-3" d="M101.41,115.41c-2.5-1.64-10.87.95-13.24,8.06V122c0-3.89,5-10,12.22-10s9.26,9.61,9.26,9.61-2.22-3.5-8.15-4.24-13.33,8.52-13.33,8.52v-1.35S93,115.54,101.41,115.41Z"/><path class="cls-4" d="M105.16,120.93a54.85,54.85,0,0,1-46.86,2"/><path class="cls-4" d="M124,104.49a55,55,0,0,1-13.83,13.42"/><path class="cls-3" d="M121.53,63.86c2.5-1.64,10.87.95,13.24,8.06V70.44c0-3.89-5-10-12.22-10S113.29,70,113.29,70s2.22-3.5,8.15-4.24,13.33,8.52,13.33,8.52V73S130,64,121.53,63.86Z"/><path class="cls-4" d="M129.56,50.19a54.91,54.91,0,0,1,1.37,41.35"/><circle class="cls-5" cx="110.78" cy="29.58" r="2.56"/><circle class="cls-5" cx="106.36" cy="27.9" r="2.56"/><circle class="cls-5" cx="107.38" cy="32.64" r="2.56"/><path class="cls-3" d="M88.82,27.61c.5-2.95,8.08-7.33,14.91-4.23l-1.08-1C99.79,19.73,91.92,19.25,87,24.54s.75,13.32.75,13.32-1.05-4,2.43-8.85,15.31-4,15.31-4l-1-.92S94.66,21.5,88.82,27.61Z"/><path class="cls-3" d="M49.51,37.21c-5-1.61-11.88.74-11.88.74s7.16-.74,7.65-.25c-1,.6-6.17,1-7.65.25a3.16,3.16,0,0,0,1,1C40.57,40.57,47.3,40.35,49.51,37.21Z"/><circle class="cls-5" cx="37.33" cy="41.44" r="2.56"/><path class="cls-4" d="M25.12,67.38A54.73,54.73,0,0,1,127,45.14"/><path class="cls-4" d="M26.75,86.79a54.79,54.79,0,0,1-1.88-14.26"/><path class="cls-4" d="M42.3,112.58a55,55,0,0,1-8.68-10.36"/><path class="cls-3" d="M104.73,88c-10,5.9-16.12,20.59-16.12,20.59s9.24-12.85,10.75-12.94c-.53,2.56-7.34,11.61-10.75,12.94a6.93,6.93,0,0,0,3.11-.09C97.19,107.56,106.67,96.18,104.73,88Z"/><circle class="cls-5" cx="90.18" cy="107.9" r="2.86"/><circle class="cls-5" cx="91.16" cy="113.32" r="2.56"/><circle class="cls-5" cx="86.74" cy="111.64" r="2.56"/><path class="cls-3" d="M74.09,115.05c2.5-1.64,10.87.95,13.24,8.06v-1.48c0-3.89-5-10-12.22-10s-9.26,9.61-9.26,9.61,2.22-3.5,8.15-4.24,13.33,8.52,13.33,8.52v-1.35S82.54,115.18,74.09,115.05Z"/><circle class="cls-5" cx="87.76" cy="116.38" r="2.56"/><path class="cls-3" d="M47.75,89.85c-2.56-1.54-10.83,1.36-12.92,8.55l-.06-1.47C34.63,93,39.39,86.75,46.61,86.48s9.61,9.25,9.61,9.25-2.35-3.41-8.3-3.93-13,9-13,9l-.05-1.35S39.31,90.3,47.75,89.85Z"/><path class="cls-3" d="M75.66,104.89c4.53,2.7,11.74,2,11.74,2s-7.15-.9-7.51-1.48c1.14-.35,6.24.41,7.51,1.48a3.16,3.16,0,0,0-.71-1.22C85.12,103.65,78.52,102.34,75.66,104.89Z"/><circle class="cls-6" cx="92.39" cy="81.45" r="2.86"/><circle class="cls-6" cx="93.37" cy="86.86" r="2.56"/><circle class="cls-6" cx="88.95" cy="85.18" r="2.56"/><circle class="cls-5" cx="89.97" cy="89.92" r="2.56"/><path class="cls-3" d="M101.2,79.15c-1.54-1-6.7.58-8.16,5v-.91c0-2.4,3.08-6.16,7.53-6.16S106.28,83,106.28,83a7,7,0,0,0-5-2.61C97.6,79.9,93,85.6,93,85.6v-.83S96,79.23,101.2,79.15Z"/><path class="cls-1" d="M52.53,113c.1.51.15,1,.21,1.59a16.17,16.17,0,0,0,3.67-6.79c.17-.61.62-.74,1-.14a4.68,4.68,0,0,1,.07,2.86,11.29,11.29,0,0,1-4.61,5.87c.16,4.8-.88,10.32-2.56,13.51-1.2,2.24-2.31,2.65-3.93,1.72-1.34-.75-3.07-2.28-3.32-6.3-.69-10.54,6.52-30.27,10.16-38.91.26-.63.87-.69,1.16-.18.86,1.46,1.1,3.47-.23,7.23-1.29,3.5-3.47,9.33-5,14.66C51,108.33,52,110,52.53,113Zm-6,16.72c1.27,1.14,3.51-5.89,3.81-12.51a3.34,3.34,0,0,1-3.17-1.3C45.75,122.55,45.19,128.59,46.51,129.73Zm3.6-17.31c-.28-1.72-1-3.06-1.32-2.86s-.37,2.8-.21,3.87c.24,1.49.84,2.38,1.75,2.39A21.49,21.49,0,0,0,50.12,112.42Z"/><path class="cls-1" d="M69.89,103.25c-.21,4.11-2.22,9.33-5.41,11.14a5.17,5.17,0,0,1-6.21-.91C55.72,111.2,55.64,107,57,103c1.15-3.48,3.45-6.7,6.18-7.41a3.2,3.2,0,0,1,3.44,1c1.34,1.23,2.78,1.28,3.15,4.66,0,.38.09.7.11,1.08.28-.05.54-.2.91-.27s.37.17.23.43A1.92,1.92,0,0,1,69.89,103.25Zm-4.15-.4a5.84,5.84,0,0,1-2.91-3.65,16.44,16.44,0,0,0-2.72,5c-1.26,3.88-1.14,8.26.26,9s4-1.35,5.44-6a24.78,24.78,0,0,0,.9-4A3.57,3.57,0,0,1,65.74,102.85Zm.78-4.41c-.52-1.43-1.39-1-1.36.41a3.87,3.87,0,0,0,1.65,3.08A9,9,0,0,0,66.52,98.44Z"/><path class="cls-1" d="M81.38,91.36c1.64-.94,2.88-.46,4.18,1.3a4.46,4.46,0,0,1,.07,5.59,15.32,15.32,0,0,1-5.69,5c.91,3.75,2.71,6.13,4.5,6s3.78-4.22,4.61-7.35c.17-.61.58-.73.91-.22a3.56,3.56,0,0,1,0,2.92c-.73,2.15-2.29,5.52-5.94,6.17-3.24.58-6.47-1.53-7.58-7.78-.16-.83-.09-1,.73-1.43,5.36-3,7.63-7.6,6.71-8.66-.67-.73-2.6.17-4.68,2.53-3,3.3-4.25,7.76-6.17,16.94-.07.4-.42.56-.81.25-.84-.65-1.36-2.08-1-5.07C71.67,103,76.4,86.39,79.43,80c.31-.63.76-.77,1.14-.27,1,1.25,1.22,3.12-.07,6.86-.74,2.11-1.92,5.68-2.73,8.19A11.42,11.42,0,0,1,81.38,91.36Z"/><path class="cls-1" d="M98.33,88.1c1.64-.94,2.88-.46,4.18,1.3a4.46,4.46,0,0,1,.07,5.59,15.32,15.32,0,0,1-5.69,5c.91,3.75,2.71,6.13,4.5,6s3.78-4.22,4.61-7.35c.17-.61.58-.73.91-.22a3.56,3.56,0,0,1,0,2.92c-.73,2.15-2.29,5.52-5.94,6.17-3.24.58-6.47-1.53-7.58-7.78-.16-.83-.09-1,.73-1.43,5.36-3,7.63-7.6,6.71-8.66-.67-.73-2.6.17-4.68,2.53-3,3.3-4.25,7.76-6.17,16.94-.07.4-.42.56-.81.25-.84-.65-1.36-2.08-1-5.07.48-4.45,5.22-21.11,8.25-27.49.31-.63.76-.77,1.15-.27,1,1.25,1.22,3.12-.07,6.86-.74,2.11-1.92,5.68-2.73,8.19A11.42,11.42,0,0,1,98.33,88.1Z"/><path class="cls-1" d="M105.28,99.83A58,58,0,0,1,109,87.47c.31-.63.6-.83,1.05-.49.83.6,1.59,2.52.92,5-.58,2.22-1.91,5.73-2.44,8.22-.59,2.89-.15,4.67,1.31,4.3,2.06-.49,4-4,4.78-7.48.15-.46.48-.48.74-.14a3.35,3.35,0,0,1,.23,2.92c-.83,3.13-3.37,5.63-6,6.13C106.16,106.64,104.71,103.86,105.28,99.83Zm8-14c-.48.76-1.79.87-2.72-.19a2.92,2.92,0,0,1-.43-3.46c.59-.93,2-.63,2.87.5A2.84,2.84,0,0,1,113.25,85.8Z"/><path class="cls-1" d="M121.83,102.28c3.87-.55,6.52-4.9,7.92-8.32.16-.41.53-.48.79-.11a3.81,3.81,0,0,1-.23,3,11.91,11.91,0,0,1-8.09,6.73c-5.84,1.22-9-4.16-7.13-10.69s6.1-9.84,8.66-8.95a8.75,8.75,0,0,1,3.19,1.88c1,.95,1.22,3.83-.27,6.56-1.73,3.21-4.59,5-8.33,3C117.69,99.92,119.36,102.62,121.83,102.28Zm1.78-11.35c1.1-2.22,1.66-4.82.91-5.2-1.12-.6-4.42,2.91-5.74,7.71-.09.3-.17.61-.22.86C121.1,95.29,122.61,92.94,123.61,90.93Z"/><path class="cls-3" d="M50.9,62.64c-9.74,6.27-15.34,21.19-15.34,21.19s8.75-13.19,10.25-13.33c-.43,2.58-6.9,11.88-10.25,13.33a6.93,6.93,0,0,0,3.1-.21C44.1,82.49,53.14,70.77,50.9,62.64Z"/><path class="cls-3" d="M79.69,77c2.41,4.69,8.92,7.88,8.92,7.88S83,80.29,83,79.61c1.15.31,5.08,3.65,5.59,5.23a3.16,3.16,0,0,0,0-1.41C88.38,80.91,83.47,76.3,79.69,77Z"/><path class="cls-1" d="M46.43,51.53c1.91-1.14,3.38-.59,4.93,1.48a5.37,5.37,0,0,1,.18,6.65,18.08,18.08,0,0,1-6.61,6c1.14,4.45,3.3,7.26,5.4,7,2.26-.25,4.37-5.09,5.3-8.83.19-.73.67-.88,1.07-.28a4.29,4.29,0,0,1,0,3.48c-.83,2.58-2.59,6.61-6.88,7.45-3.8.74-7.64-1.71-9.05-9.14-.2-1-.13-1.17.83-1.72,6.25-3.66,8.84-9.18,7.74-10.43-.8-.86-3.06.24-5.46,3.09-3.42,4-4.86,9.31-7,20.28-.07.47-.48.67-1,.31-1-.76-1.64-2.46-1.29-6,.49-5.31,5.76-25.23,9.22-32.88.35-.76.88-.93,1.34-.34,1.15,1.47,1.49,3.69,0,8.17-.84,2.52-2.16,6.8-3.07,9.8A13.49,13.49,0,0,1,46.43,51.53Z"/><path class="cls-1" d="M87.78,67.27c-3.31.92-5.75.86-8-.49a5.53,5.53,0,0,1-2.47-3.2c-1.74,5.8-3.51,12.58-4.9,19.27-.12.54-.46.78-.83.35-1-.93-1.69-2.45-1.35-6,.36-3.74,3.06-14,5.48-22a7.43,7.43,0,0,1-4.8,2.49c-.17,5-2.35,11.36-6.14,13.53-1.87,1.08-4.5,1.46-7.31-.93-3.09-2.67-3.16-7.69-1.67-12.52,1.29-4.16,4-8,7.19-8.95,1.6-.45,2.62-.15,4,1.1,1.59,1.44,3.27,1.37,3.84,5.49a5.09,5.09,0,0,1,0,.91c3.45-.78,6.11-5.46,8-10.56.34-.82.9-.82,1.32-.16A5.54,5.54,0,0,1,81.17,48c1.89-2.63,4.84-5,7.64-2.92,3.07,2.27,2.92,7.34,1.78,12.21-.93,4-2.3,6.95-4,8.63,5.14-1.36,7.59-5.94,8.56-10,.17-.84.81-.74,1.08-.23a5.52,5.52,0,0,1-.08,3.73A11.66,11.66,0,0,1,87.78,67.27Zm-25.2-14.1a22.61,22.61,0,0,0-3.1,6.08c-1.48,4.6-1.19,9.86.4,10.73,1.79,1,4.67-1.72,6.31-7.22a26.26,26.26,0,0,0,1-5.14A6.6,6.6,0,0,1,62.58,53.17Zm4.28-.9c-.58-1.71-1.66-1.2-1.59.51a4.36,4.36,0,0,0,2.05,3.4A11.52,11.52,0,0,0,66.85,52.27Zm19.32-6c-1.47-.26-4.08,3-5.75,7.73-.38,1.17-.86,2.41-1.33,3.71-.56,3.61-.17,6.84,1.54,7.74,2.09,1.11,4.79-3.64,6.2-9.37C88,51.2,87.64,46.54,86.17,46.27Z"/><path class="cls-1" d="M105.28,53.53c.18-.5.6-.64.88-.13a5,5,0,0,1-.15,3.41c-1.33,4.23-5.08,7.7-9.52,10.81-1.59,7.94-3.76,17.66-7.7,20.21a2.31,2.31,0,0,1-3.3-.39c-1.42-1.42-3.07-3.13-2.64-6.54.65-5.34,4.67-9.68,9.6-12.88C94.29,58.3,97.06,47.08,99,42c.33-.87.7-1,1.23-.6,1,.76,1.76,3.06,1.08,6.07-.72,3.35-3.07,11.68-4.34,17.61A27.93,27.93,0,0,0,105.28,53.53ZM86.17,85.28c1,.83,4.07-6,5.83-14.78C85.8,76,84.93,84.17,86.17,85.28Zm17.77-45.37c-.53,1-2.08,1.12-3.2-.19a3.51,3.51,0,0,1-.54-4c.66-1.17,2.37-.84,3.33.56A3.43,3.43,0,0,1,103.94,39.91Z"/><path class="cls-1" d="M113.2,59.87c6-.78,12.72-8.54,14.3-12.64.18-.5.61-.59.93-.14s-.29,2-1.08,3.59c-1.59,3.82-8.29,9.9-13.67,10.75-6.85,1.55-10.64-4.8-8.58-12.61s7-11.82,10-10.8a10.27,10.27,0,0,1,3.78,2.18c1.25,1.11,1.5,4.55-.2,7.82-2,3.85-5.31,6-9.74,3.7C108.28,57.13,110.29,60.31,113.2,59.87Zm1.9-13.55c1.26-2.67,1.86-5.77,1-6.21-1.33-.69-5.14,3.54-6.62,9.28-.09.36-.19.73-.24,1C112.22,51.56,114,48.73,115.1,46.32Z"/><path class="cls-1" d="M38.79,61.08a17.74,17.74,0,0,1-12,10.07c-2.15.52-4.06,0-4.48-.45s-.29-1,.36-1.14c5.39-1.14,12.46-3.89,14.29-9.41"/><path class="cls-1" d="M155.74,146.83s4.54-2.86,6.23-1.27c.78.62-.13,2.33-1.63,1.48A6.1,6.1,0,0,0,155.74,146.83Z"/><path class="cls-1" d="M149.34,150.07s5.36.06,5.93,2.31c.32.94-1.37,1.89-2.18.36A6.1,6.1,0,0,0,149.34,150.07Z"/><path class="cls-1" d="M20.31,146.83s-4.54-2.86-6.23-1.27c-.78.62.13,2.33,1.63,1.48A6.1,6.1,0,0,1,20.31,146.83Z"/><path class="cls-1" d="M26.71,150.07s-5.36.06-5.93,2.31c-.32.94,1.37,1.89,2.18.36A6.1,6.1,0,0,1,26.71,150.07Z"/><path class="cls-7" d="M113.37,64.58s5.62,1.54,7.93-.87c1.05-1,0-2.56-2-1.06A10.66,10.66,0,0,1,113.37,64.58Z"/><path class="cls-7" d="M32.37,71.55s-2.6,3.95-4.54,3.29c-.85-.21-.75-1.92.77-1.78A5.38,5.38,0,0,0,32.37,71.55Z"/><path class="cls-3" d="M10.64,70.25s2.22-3.37,3.87-2.81c.73.18.64,1.63-.66,1.52A4.59,4.59,0,0,0,10.64,70.25Z"/><path class="cls-3" d="M9.62,74.68S6.32,78.06,4.53,77c-.8-.37-.37-2,1.1-1.6A5.38,5.38,0,0,0,9.62,74.68Z"/><path class="cls-7" d="M55.35,50.5s1.49-7,4.6-7.18c1.32-.17,2.12,2.3-.1,3A8.18,8.18,0,0,0,55.35,50.5Z"/><path class="cls-7" d="M67.93,72.64s-1.12,5.84-3.69,6c-1.09.16-1.79-1.87,0-2.44A6.76,6.76,0,0,0,67.93,72.64Z"/><path class="cls-7" d="M79.89,36.74s2.36-2.33,3.59-1.59c.55.27.23,1.42-.79,1.11A3.77,3.77,0,0,0,79.89,36.74Z"/><path class="cls-3" d="M31.58,78.92c1.47.08,4.1,3.53,3,7l.42-.58c1.1-1.52.82-5.37-2.08-7.47s-6.44,1.07-6.44,1.07a5.63,5.63,0,0,1,4.47.71c2.59,1.43,2.95,7.21,2.95,7.21l.38-.53S34.94,81.42,31.58,78.92Z"/><circle class="cls-5" cx="37.11" cy="83.1" r="2.86" transform="translate(-3.11 1.46) rotate(-2.16)"/><circle class="cls-5" cx="38.29" cy="88.47" r="2.56" transform="translate(-3.31 1.51) rotate(-2.16)"/><circle class="cls-5" cx="34.77" cy="86.96" r="2.56" transform="translate(-3.26 1.37) rotate(-2.16)"/><path class="cls-3" d="M21.3,90.85c2.44-1.73,10.9.53,13.53,7.55l-.06-1.47c-.15-3.89-5.37-9.8-12.59-9.53s-8.89,9.95-8.89,9.95,2.09-3.58,8-4.54,13.64,8,13.64,8l-.05-1.35S29.75,90.66,21.3,90.85Z"/><circle class="cls-5" cx="35.01" cy="91.66" r="2.56" transform="matrix(1, -0.04, 0.04, 1, -3.43, 1.39)"/><path class="cls-3" d="M51.18,132.23s-.75,3.56-2.33,3.64c-.67.09-1.08-1.16.05-1.5A4.14,4.14,0,0,0,51.18,132.23Z"/><path class="cls-7" d="M58.5,95.63s3.51-4.79,5.91-3.85c1.06.32.82,2.45-1.08,2.19A6.76,6.76,0,0,0,58.5,95.63Z"/><path class="cls-7" d="M93.91,107.9s3.65,4.54,6.93,4c1.43-.18,1.52-2.06-1-2A10.66,10.66,0,0,1,93.91,107.9Z"/><circle class="cls-5" cx="31.52" cy="84.98" r="2.21" transform="translate(-3.18 1.25) rotate(-2.16)"/><circle class="cls-5" cx="31.52" cy="89.66" r="2.13" transform="translate(-3.36 1.25) rotate(-2.16)"/><path class="cls-3" d="M138.76,45.26s3.07-2.31,4.38-1.28c.59.4,0,1.67-1.08,1.15A4.37,4.37,0,0,0,138.76,45.26Z"/><path class="cls-3" d="M144.25,39.18s3.15-3.22,4.85-2.26c.76.35.35,1.93-1,1.53A5.13,5.13,0,0,0,144.25,39.18Z"/></svg>