<svg id="Layer_1" data-name="Layer 1" xmlns="http://www.w3.org/2000/svg" viewBox="0 0 106.58 96.93"><defs><style>.cls-1{fill:#fff;}.cls-2{fill:#c37256;}</style></defs><title>Artboard 7 copy 5</title><path class="cls-1" d="M20.3,50.84s-4.31-2.71-5.92-1.2c-.74.59.12,2.21,1.55,1.41A5.8,5.8,0,0,1,20.3,50.84Z"/><path class="cls-1" d="M26.38,53.92s-5.09.06-5.63,2.2c-.3.9,1.3,1.8,2.07.34A5.8,5.8,0,0,1,26.38,53.92Z"/><path class="cls-1" d="M88.31,50.49s4.87-3.07,6.69-1.36c.84.67-.13,2.5-1.75,1.59A6.55,6.55,0,0,0,88.31,50.49Z"/><path class="cls-1" d="M81.44,54s5.75.06,6.36,2.48c.34,1-1.47,2-2.33.38A6.55,6.55,0,0,0,81.44,54Z"/><circle class="cls-1" cx="36.95" cy="41.95" r="0.29"/><circle class="cls-1" cx="38.94" cy="42.52" r="0.29"/><circle class="cls-1" cx="38.47" cy="40.79" r="0.29"/><circle class="cls-1" cx="36.38" cy="44.17" r="0.29"/><circle class="cls-1" cx="38.36" cy="44.75" r="0.29"/><polygon class="cls-1" points="32.24 31.86 32.24 55.12 70.69 80.75 70.69 53.69 32.24 31.86"/><polygon class="cls-2" points="66.9 24.79 32.24 31.86 70.69 53.69 66.9 24.79"/><polygon class="cls-2" points="32.24 38.01 70.69 60.11 70.69 66.81 32.24 43.06 32.24 38.01"/><polygon class="cls-2" points="32.24 48.31 70.69 72.67 70.69 78.32 32.24 53.37 32.24 48.31"/></svg>